<?xml version="1.0" encoding="iso-8859-1"?>
<!-- Generator: Adobe Illustrator 19.0.0, SVG Export Plug-In . SVG Version: 6.00 Build 0)  -->
<svg version="1.1" id="Layer_1" xmlns="http://www.w3.org/2000/svg" xmlns:xlink="http://www.w3.org/1999/xlink" x="0px" y="0px"
	 viewBox="0 0 512 512" style="enable-background:new 0 0 512 512;" xml:space="preserve">
<path style="fill:#CC7400;" d="M454.01,233.739c-2.783,7.123-7.457,13.579-13.69,18.922l-54.54,46.637
	c-3.115,2.671-120.429,1.224-124.215,1.224l72.459-235.854l110.08,115.311c5.675,6.01,9.572,13.023,11.797,20.369
	C459.13,211.367,458.461,223.165,454.01,233.739z"/>
<path style="fill:#FFA733;" d="M239.304,300.522c-3.785,0-110.748,1.447-113.864-1.224l-54.539-46.637
	c-6.232-5.343-10.908-11.798-13.69-18.922c-4.452-10.574-5.121-22.372-1.892-33.391c2.226-7.346,6.122-14.358,11.799-20.369
	L177.085,64.668L239.304,300.522z"/>
<polygon style="fill:#A78966;" points="439.652,367.304 72.348,367.304 183.652,189.217 328.348,189.217 "/>
<g>
	<polygon style="fill:#816952;" points="256,367.304 439.652,367.304 328.348,189.217 256,189.217 	"/>
	<path style="fill:#816952;" d="M256,267.13c-9.217,0-16.696-7.473-16.696-16.696v-33.391c0-9.223,7.479-16.696,16.696-16.696
		s16.696,7.473,16.696,16.696v33.391C272.696,259.657,265.217,267.13,256,267.13z"/>
</g>
<path style="fill:#77604B;" d="M272.696,250.435v-33.391c0-9.223-7.479-16.696-16.696-16.696v66.783
	C265.217,267.13,272.696,259.657,272.696,250.435z"/>
<rect x="72.348" y="367.304" style="fill:#FFA733;" width="367.304" height="144.696"/>
<rect x="256" y="367.304" style="fill:#CC7400;" width="183.652" height="144.696"/>
<path style="fill:#FFE477;" d="M172.522,512H22.261c-9.22,0-16.696-7.475-16.696-16.696v-33.391
	c0-27.662,22.424-50.087,50.087-50.087h66.783c27.662,0,50.087,22.424,50.087,50.087V512z"/>
<path style="fill:#FFB655;" d="M489.739,512H339.478v-50.087c0-27.662,22.424-50.087,50.087-50.087h66.783
	c27.662,0,50.087,22.424,50.087,50.087v33.391C506.435,504.525,498.96,512,489.739,512z"/>
<path style="fill:#816952;" d="M454.01,233.739h-64.445c-9.239,0-16.696-7.457-16.696-16.696s7.456-16.696,16.696-16.696h66.337
	C459.13,211.367,458.461,223.165,454.01,233.739z"/>
<path style="fill:#A78966;" d="M138.35,217.043c0,9.238-7.456,16.696-16.696,16.696H57.21c-4.452-10.574-5.121-22.372-1.892-33.391
	h66.337C130.894,200.348,138.35,207.805,138.35,217.043z"/>
<path style="fill:#FFE477;" d="M289.391,33.391h-66.783c-27.603,0-50.087,22.483-50.087,50.087v66.783
	c0,46.08,37.398,83.478,83.478,83.478s83.478-37.398,83.478-83.478V83.478C339.478,55.875,316.995,33.391,289.391,33.391z"/>
<path style="fill:#FFB655;" d="M339.478,83.478v66.783c0,46.08-37.398,83.478-83.478,83.478V33.391h33.391
	C316.995,33.391,339.478,55.875,339.478,83.478z"/>
<path style="fill:#D6A246;" d="M256,100.174c-9.217,0-16.696-7.473-16.696-16.696V16.696C239.304,7.473,246.783,0,256,0
	s16.696,7.473,16.696,16.696v66.783C272.696,92.701,265.217,100.174,256,100.174z"/>
<path style="fill:#CE8A42;" d="M272.696,83.478V16.696C272.696,7.473,265.217,0,256,0v100.174
	C265.217,100.174,272.696,92.701,272.696,83.478z"/>
<path style="fill:#816952;" d="M306.087,512H205.913v-61.217c0-27.662,22.424-50.087,50.087-50.087l0,0
	c27.662,0,50.087,22.424,50.087,50.087V512z"/>
<path style="fill:#77604B;" d="M306.087,512v-61.217c0-27.662-22.423-50.087-50.087-50.087V512H306.087z"/>
<g>
</g>
<g>
</g>
<g>
</g>
<g>
</g>
<g>
</g>
<g>
</g>
<g>
</g>
<g>
</g>
<g>
</g>
<g>
</g>
<g>
</g>
<g>
</g>
<g>
</g>
<g>
</g>
<g>
</g>
</svg>
